<svg width="160" height="51" viewBox="0 0 160 51" fill="none" xmlns="http://www.w3.org/2000/svg">
<path d="M38.5445 1.35889H10.7359C4.80663 1.35889 0 6.16552 0 12.0948V39.9034C0 45.8327 4.80663 50.6393 10.7359 50.6393H38.5445C44.4738 50.6393 49.2804 45.8327 49.2804 39.9034V12.0948C49.2804 6.16552 44.4738 1.35889 38.5445 1.35889Z" fill="#111724"/>
<path d="M38.5447 0H10.7362C4.80688 0 0.000244141 4.80663 0.000244141 10.7359V38.5445C0.000244141 44.4738 4.80688 49.2804 10.7362 49.2804H38.5447C44.474 49.2804 49.2807 44.4738 49.2807 38.5445V10.7359C49.2807 4.80663 44.474 0 38.5447 0Z" fill="url(#paint0_linear)"/>
<path opacity="0.5" fill-rule="evenodd" clip-rule="evenodd" d="M2.88892 3.22852H46.0518V46.3914H2.88892V3.22852ZM3.15778 3.49738V46.1225H45.7829V3.49738H3.15778Z" fill="#DFC67B"/>
<path opacity="0.5" fill-rule="evenodd" clip-rule="evenodd" d="M33.3066 49.2804V0H33.6465V49.2804H33.3066Z" fill="#DFC67B"/>
<path opacity="0.5" fill-rule="evenodd" clip-rule="evenodd" d="M24.4702 49.2804V0H24.8101V49.2804H24.4702Z" fill="#DFC67B"/>
<path opacity="0.5" fill-rule="evenodd" clip-rule="evenodd" d="M15.8037 49.2804V0H15.9736V49.2804H15.8037Z" fill="#DFC67B"/>
<path opacity="0.5" fill-rule="evenodd" clip-rule="evenodd" d="M49.2804 15.6343H0V15.4644H49.2804V15.6343Z" fill="#DFC67B"/>
<path opacity="0.5" fill-rule="evenodd" clip-rule="evenodd" d="M49.2804 24.8096H0V24.4697H49.2804V24.8096Z" fill="#DFC67B"/>
<path opacity="0.5" fill-rule="evenodd" clip-rule="evenodd" d="M49.2804 33.8164H0V33.6465H49.2804V33.8164Z" fill="#DFC67B"/>
<path opacity="0.5" fill-rule="evenodd" clip-rule="evenodd" d="M46.0315 46.2215L2.88892 3.0789L3.07915 2.88867L46.2217 46.0312L46.0315 46.2215Z" fill="#DFC67B"/>
<path opacity="0.5" fill-rule="evenodd" clip-rule="evenodd" d="M2.88892 46.2021L45.8613 3.39893L46.0518 3.58864L3.07938 46.3918L2.88892 46.2021Z" fill="#DFC67B"/>
<path opacity="0.5" fill-rule="evenodd" clip-rule="evenodd" d="M24.3005 6.04641C14.1248 6.04641 5.87576 14.3329 5.87576 24.5549C5.87576 34.7768 14.1248 43.0633 24.3005 43.0633C34.4762 43.0633 42.7252 34.7768 42.7252 24.5549C42.7252 14.3329 34.4762 6.04641 24.3005 6.04641ZM5.60791 24.5549C5.60791 14.1843 13.9769 5.77734 24.3005 5.77734C34.6241 5.77734 42.993 14.1843 42.993 24.5549C42.993 34.9254 34.6241 43.3324 24.3005 43.3324C13.9769 43.3324 5.60791 34.9254 5.60791 24.5549Z" fill="#DFC67B"/>
<path opacity="0.5" fill-rule="evenodd" clip-rule="evenodd" d="M32.1634 5.40028C23.8202 5.40028 17.0568 12.1637 17.0568 20.5069C17.0568 28.85 23.8202 35.6135 32.1634 35.6135C40.5065 35.6135 47.27 28.85 47.27 20.5069C47.27 12.1637 40.5065 5.40028 32.1634 5.40028ZM16.8372 20.5069C16.8372 12.0424 23.6989 5.18066 32.1634 5.18066C40.6278 5.18066 47.4896 12.0424 47.4896 20.5069C47.4896 28.9713 40.6278 35.8331 32.1634 35.8331C23.6989 35.8331 16.8372 28.9713 16.8372 20.5069Z" fill="#DFC67B"/>
<path opacity="0.5" fill-rule="evenodd" clip-rule="evenodd" d="M24.8239 6.74208C14.6007 6.74208 6.31305 14.9344 6.31305 25.0402C6.31305 35.146 14.6007 43.3383 24.8239 43.3383C35.0472 43.3383 43.3348 35.146 43.3348 25.0402C43.3348 14.9344 35.0472 6.74208 24.8239 6.74208ZM6.04395 25.0402C6.04395 14.7875 14.452 6.47607 24.8239 6.47607C35.1959 6.47607 43.604 14.7875 43.604 25.0402C43.604 35.2929 35.1959 43.6044 24.8239 43.6044C14.452 43.6044 6.04395 35.2929 6.04395 25.0402Z" fill="#DFC67B"/>
<path d="M41.6336 32.7063C33.8532 38.1975 24.2624 35.7317 19.584 29.9718C16.629 26.3351 15.3408 22.1667 15.939 17.5125C16.5372 12.8583 18.9035 9.17867 22.7937 6.2876C14.9239 7.00301 6.84172 13.5069 6.15729 23.6388C5.54793 32.6634 12.0377 41.1522 20.9137 42.932C31.2601 45.0067 39.1546 38.6427 41.6336 32.7063Z" fill="url(#paint1_linear)"/>
<path d="M58.1511 11.8219H60.5336V22.1621H65.8809V24.413H58.1511V11.8219Z" fill="white"/>
<path d="M72.0297 24.6944C71.2885 24.6944 70.612 24.5772 70.0002 24.3427C69.4002 24.0965 68.8884 23.7448 68.4648 23.2876C68.0413 22.8304 67.7119 22.2794 67.4765 21.6346C67.2412 20.978 67.1236 20.2336 67.1236 19.4012V11.8219H69.5061V19.5419C69.5061 19.9639 69.559 20.3508 69.6649 20.7025C69.7708 21.0542 69.9296 21.359 70.1414 21.617C70.3532 21.8749 70.6179 22.0801 70.9355 22.2325C71.2532 22.3731 71.6179 22.4435 72.0297 22.4435C72.4533 22.4435 72.8239 22.3731 73.1415 22.2325C73.4592 22.0801 73.7239 21.8749 73.9357 21.617C74.1475 21.359 74.3063 21.0542 74.4122 20.7025C74.5181 20.3508 74.571 19.9639 74.571 19.5419V11.8219H76.9535V19.4012C76.9535 20.1867 76.8358 20.9077 76.6005 21.5642C76.377 22.209 76.0476 22.7659 75.6123 23.2348C75.1887 23.692 74.671 24.0496 74.0592 24.3075C73.4592 24.5655 72.7827 24.6944 72.0297 24.6944Z" fill="white"/>
<path d="M79.2115 11.8219H81.9822L87.0648 20.2629H87.206L87.0648 17.8361V11.8219H89.4296V24.413H86.9236L81.5587 15.4972H81.4175L81.5587 17.924V24.413H79.2115V11.8219Z" fill="white"/>
<path d="M95.6533 11.8219H98.3711L103.118 24.413H100.489L99.4476 21.4059H94.5768L93.5355 24.413H90.906L95.6533 11.8219ZM98.6711 19.2254L97.5416 16.0776L97.0828 14.5476H96.9416L96.4827 16.0776L95.3533 19.2254H98.6711Z" fill="white"/>
<path d="M104.598 11.8219H109.204C109.839 11.8219 110.416 11.9215 110.933 12.1208C111.451 12.3201 111.892 12.5957 112.257 12.9474C112.633 13.2991 112.922 13.7211 113.122 14.2135C113.322 14.6942 113.422 15.2217 113.422 15.7962C113.422 16.2182 113.351 16.6169 113.21 16.992C113.069 17.3554 112.875 17.6896 112.627 17.9944C112.38 18.2875 112.092 18.5512 111.763 18.7857C111.433 19.0085 111.086 19.1843 110.721 19.3133L110.704 19.4364L114.092 24.2724V24.413H111.357L108.092 19.6826H106.98V24.413H104.598V11.8219ZM109.186 17.502C109.727 17.502 110.169 17.3379 110.51 17.0096C110.863 16.6813 111.039 16.2651 111.039 15.761C111.039 15.5383 110.998 15.3214 110.916 15.1104C110.845 14.8993 110.733 14.7118 110.58 14.5476C110.427 14.3835 110.233 14.2545 109.998 14.1608C109.774 14.0552 109.516 14.0025 109.221 14.0025H106.98V17.502H109.186Z" fill="white"/>
<path d="M125.075 17.502H131.269C131.305 17.6427 131.334 17.8127 131.357 18.012C131.381 18.2113 131.393 18.4106 131.393 18.6099C131.393 19.4188 131.269 20.1808 131.022 20.896C130.775 21.6111 130.387 22.25 129.857 22.8128C129.293 23.4107 128.616 23.8738 127.828 24.202C127.04 24.5303 126.14 24.6944 125.128 24.6944C124.21 24.6944 123.345 24.5303 122.533 24.202C121.722 23.8738 121.016 23.4165 120.416 22.8304C119.816 22.2442 119.339 21.5525 118.986 20.7553C118.633 19.9464 118.457 19.0671 118.457 18.1175C118.457 17.1679 118.633 16.2945 118.986 15.4972C119.339 14.6883 119.816 13.9908 120.416 13.4046C121.016 12.8184 121.722 12.3612 122.533 12.0329C123.345 11.7047 124.21 11.5405 125.128 11.5405C126.151 11.5405 127.063 11.7164 127.863 12.0681C128.675 12.4198 129.369 12.9063 129.946 13.5277L128.304 15.128C127.893 14.6942 127.434 14.3659 126.928 14.1432C126.422 13.9087 125.816 13.7915 125.11 13.7915C124.534 13.7915 123.986 13.897 123.469 14.108C122.951 14.3073 122.498 14.5945 122.11 14.9697C121.722 15.3448 121.41 15.8021 121.175 16.3413C120.951 16.8689 120.839 17.4609 120.839 18.1175C120.839 18.774 120.951 19.3719 121.175 19.9112C121.41 20.4387 121.722 20.8901 122.11 21.2653C122.51 21.6404 122.969 21.9335 123.486 22.1445C124.004 22.3438 124.557 22.4435 125.145 22.4435C125.816 22.4435 126.381 22.3497 126.84 22.1621C127.31 21.9628 127.71 21.7108 128.04 21.4059C128.275 21.1949 128.475 20.9311 128.64 20.6146C128.816 20.2863 128.951 19.9229 129.046 19.5243H125.075V17.502Z" fill="white"/>
<path d="M133.362 11.8219H137.968C138.603 11.8219 139.18 11.9215 139.697 12.1208C140.215 12.3201 140.656 12.5957 141.021 12.9474C141.397 13.2991 141.686 13.7211 141.886 14.2135C142.086 14.6942 142.186 15.2217 142.186 15.7962C142.186 16.2182 142.115 16.6169 141.974 16.992C141.833 17.3554 141.639 17.6896 141.392 17.9944C141.144 18.2875 140.856 18.5512 140.527 18.7857C140.197 19.0085 139.85 19.1843 139.486 19.3133L139.468 19.4364L142.856 24.2724V24.413H140.121L136.856 19.6826H135.744V24.413H133.362V11.8219ZM137.95 17.502C138.491 17.502 138.933 17.3379 139.274 17.0096C139.627 16.6813 139.803 16.2651 139.803 15.761C139.803 15.5383 139.762 15.3214 139.68 15.1104C139.609 14.8993 139.497 14.7118 139.344 14.5476C139.191 14.3835 138.997 14.2545 138.762 14.1608C138.538 14.0552 138.28 14.0025 137.986 14.0025H135.744V17.502H137.95Z" fill="white"/>
<path d="M144.306 11.8219H146.688V24.413H144.306V11.8219Z" fill="white"/>
<path d="M149.235 11.8219H153.505C154.505 11.8219 155.405 11.9743 156.205 12.2791C157.006 12.5839 157.688 13.0177 158.253 13.5804C158.817 14.1314 159.247 14.7938 159.541 15.5676C159.847 16.3413 160 17.1913 160 18.1175C160 19.0554 159.847 19.9112 159.541 20.6849C159.247 21.4587 158.817 22.1211 158.253 22.6721C157.688 23.2231 157.006 23.651 156.205 23.9558C155.405 24.2606 154.505 24.413 153.505 24.413H149.235V11.8219ZM153.399 22.1621C154.094 22.1621 154.705 22.0683 155.235 21.8808C155.764 21.6814 156.205 21.4059 156.558 21.0542C156.911 20.7025 157.176 20.2805 157.353 19.7881C157.529 19.284 157.617 18.7271 157.617 18.1175C157.617 17.5078 157.529 16.9568 157.353 16.4644C157.176 15.9603 156.911 15.5324 156.558 15.1807C156.205 14.829 155.764 14.5594 155.235 14.3718C154.705 14.1725 154.094 14.0728 153.399 14.0728H151.617V22.1621H153.399Z" fill="white"/>
<path d="M78.842 39.099C78.4641 39.099 78.1783 38.9893 77.9846 38.7701C77.7909 38.546 77.6941 38.2269 77.6941 37.8128V37.5205H78.431V37.8713C78.431 38.2025 78.5657 38.3682 78.8349 38.3682C78.9672 38.3682 79.0664 38.3292 79.1325 38.2513C79.2034 38.1684 79.2388 38.0369 79.2388 37.8566C79.2388 37.6423 79.1916 37.4547 79.0971 37.294C79.0026 37.1283 78.8279 36.931 78.5728 36.702C78.2515 36.4097 78.0271 36.1466 77.8996 35.9128C77.772 35.6741 77.7083 35.4061 77.7083 35.1089C77.7083 34.7046 77.8075 34.3928 78.0059 34.1736C78.2043 33.9495 78.4924 33.8374 78.8704 33.8374C79.2436 33.8374 79.5246 33.9495 79.7136 34.1736C79.9073 34.3928 80.0041 34.7095 80.0041 35.1236V35.3355H79.2672V35.0724C79.2672 34.897 79.2341 34.7704 79.168 34.6924C79.1018 34.6096 79.005 34.5682 78.8775 34.5682C78.6176 34.5682 78.4877 34.7314 78.4877 35.0578C78.4877 35.2429 78.535 35.4159 78.6294 35.5766C78.7286 35.7374 78.9058 35.9323 79.1609 36.1613C79.4868 36.4536 79.7112 36.7191 79.8341 36.9578C79.9569 37.1965 80.0183 37.4766 80.0183 37.7982C80.0183 38.2172 79.9167 38.5387 79.7136 38.7628C79.5152 38.9869 79.2247 39.099 78.842 39.099Z" fill="white"/>
<path d="M90.6761 34.6413H89.8612V33.9105H92.2705V34.6413H91.4556V39.0259H90.6761V34.6413Z" fill="white"/>
<path d="M103.383 39.099C103.005 39.099 102.717 38.9893 102.519 38.7701C102.32 38.546 102.221 38.2269 102.221 37.8128V33.9105H103.001V37.8713C103.001 38.0466 103.034 38.1733 103.1 38.2513C103.171 38.3292 103.27 38.3682 103.397 38.3682C103.525 38.3682 103.622 38.3292 103.688 38.2513C103.759 38.1733 103.794 38.0466 103.794 37.8713V33.9105H104.545V37.8128C104.545 38.2269 104.446 38.546 104.248 38.7701C104.049 38.9893 103.761 39.099 103.383 39.099Z" fill="white"/>
<path d="M114.702 33.9105H115.892C116.28 33.9105 116.57 34.0177 116.764 34.232C116.958 34.4464 117.054 34.7606 117.054 35.1747V37.7616C117.054 38.1757 116.958 38.49 116.764 38.7043C116.57 38.9187 116.28 39.0259 115.892 39.0259H114.702V33.9105ZM115.878 38.2951C116.006 38.2951 116.103 38.2561 116.169 38.1782C116.24 38.1002 116.275 37.9736 116.275 37.7982V35.1382C116.275 34.9628 116.24 34.8361 116.169 34.7582C116.103 34.6802 116.006 34.6413 115.878 34.6413H115.481V38.2951H115.878Z" fill="white"/>
<path d="M127.182 33.9105H127.962V39.0259H127.182V33.9105Z" fill="white"/>
<path d="M139.274 39.099C138.891 39.099 138.598 38.9869 138.395 38.7628C138.192 38.5387 138.09 38.222 138.09 37.8128V35.1236C138.09 34.7143 138.192 34.3977 138.395 34.1736C138.598 33.9495 138.891 33.8374 139.274 33.8374C139.656 33.8374 139.949 33.9495 140.152 34.1736C140.355 34.3977 140.457 34.7143 140.457 35.1236V37.8128C140.457 38.222 140.355 38.5387 140.152 38.7628C139.949 38.9869 139.656 39.099 139.274 39.099ZM139.274 38.3682C139.543 38.3682 139.677 38.2001 139.677 37.864V35.0724C139.677 34.7363 139.543 34.5682 139.274 34.5682C139.004 34.5682 138.87 34.7363 138.87 35.0724V37.864C138.87 38.2001 139.004 38.3682 139.274 38.3682Z" fill="white"/>
<defs>
<linearGradient id="paint0_linear" x1="-4.18487" y1="-4.81288" x2="52.1049" y2="51.8954" gradientUnits="userSpaceOnUse">
<stop stop-color="#29539B"/>
<stop offset="1" stop-color="#051431"/>
</linearGradient>
<linearGradient id="paint1_linear" x1="23.8756" y1="6.2876" x2="23.8756" y2="43.3329" gradientUnits="userSpaceOnUse">
<stop stop-color="#FFFFCC"/>
<stop offset="1" stop-color="#E2C96E"/>
</linearGradient>
</defs>
</svg>
