<svg width="243" height="77" viewBox="0 0 243 77" fill="none" xmlns="http://www.w3.org/2000/svg">
<path d="M58.5396 2.06445H16.3052C7.30009 2.06445 0 9.36454 0 18.3697V60.604C0 69.6091 7.30009 76.9092 16.3052 76.9092H58.5396C67.5447 76.9092 74.8448 69.6091 74.8448 60.604V18.3697C74.8448 9.36454 67.5447 2.06445 58.5396 2.06445Z" fill="#111724"/>
<path d="M58.5398 0H16.3054C7.30033 0 0.000244141 7.30009 0.000244141 16.3052V58.5396C0.000244141 67.5447 7.30033 74.8448 16.3054 74.8448H58.5398C67.5449 74.8448 74.845 67.5447 74.845 58.5396V16.3052C74.845 7.30009 67.5449 0 58.5398 0Z" fill="url(#paint0_linear)"/>
<path opacity="0.5" fill-rule="evenodd" clip-rule="evenodd" d="M4.3877 4.90332H69.9414V70.457H4.3877V4.90332ZM4.79604 5.31166V70.0487H69.5331V5.31166H4.79604Z" fill="#DFC67B"/>
<path opacity="0.5" fill-rule="evenodd" clip-rule="evenodd" d="M50.5845 74.8448V0H51.1006V74.8448H50.5845Z" fill="#DFC67B"/>
<path opacity="0.5" fill-rule="evenodd" clip-rule="evenodd" d="M37.1641 74.8448V0H37.6802V74.8448H37.1641Z" fill="#DFC67B"/>
<path opacity="0.5" fill-rule="evenodd" clip-rule="evenodd" d="M24.0022 74.8448V0H24.2603V74.8448H24.0022Z" fill="#DFC67B"/>
<path opacity="0.5" fill-rule="evenodd" clip-rule="evenodd" d="M74.8448 23.7439H0V23.4858H74.8448V23.7439Z" fill="#DFC67B"/>
<path opacity="0.5" fill-rule="evenodd" clip-rule="evenodd" d="M74.8448 37.6802H0V37.1641H74.8448V37.6802Z" fill="#DFC67B"/>
<path opacity="0.5" fill-rule="evenodd" clip-rule="evenodd" d="M74.8448 51.3592H0V51.1011H74.8448V51.3592Z" fill="#DFC67B"/>
<path opacity="0.5" fill-rule="evenodd" clip-rule="evenodd" d="M69.9106 70.199L4.3877 4.67612L4.67661 4.38721L70.1995 69.9101L69.9106 70.199Z" fill="#DFC67B"/>
<path opacity="0.5" fill-rule="evenodd" clip-rule="evenodd" d="M4.3877 70.1691L69.6521 5.16162L69.9414 5.44975L4.67697 70.4572L4.3877 70.1691Z" fill="#DFC67B"/>
<path opacity="0.5" fill-rule="evenodd" clip-rule="evenodd" d="M36.9062 9.18306C21.4519 9.18306 8.92364 21.7682 8.92364 37.2928C8.92364 52.8174 21.4519 65.4026 36.9062 65.4026C52.3606 65.4026 64.8888 52.8174 64.8888 37.2928C64.8888 21.7682 52.3606 9.18306 36.9062 9.18306ZM8.51685 37.2928C8.51685 21.5426 21.2272 8.77441 36.9062 8.77441C52.5853 8.77441 65.2956 21.5426 65.2956 37.2928C65.2956 53.0431 52.5853 65.8113 36.9062 65.8113C21.2272 65.8113 8.51685 53.0431 8.51685 37.2928Z" fill="#DFC67B"/>
<path opacity="0.5" fill-rule="evenodd" clip-rule="evenodd" d="M48.8483 8.2017C36.1771 8.2017 25.9051 18.4737 25.9051 31.1449C25.9051 43.8161 36.1771 54.0881 48.8483 54.0881C61.5194 54.0881 71.7914 43.8161 71.7914 31.1449C71.7914 18.4737 61.5194 8.2017 48.8483 8.2017ZM25.5715 31.1449C25.5715 18.2895 35.9929 7.86816 48.8483 7.86816C61.7036 7.86816 72.125 18.2895 72.125 31.1449C72.125 44.0003 61.7036 54.4216 48.8483 54.4216C35.9929 54.4216 25.5715 44.0003 25.5715 31.1449Z" fill="#DFC67B"/>
<path opacity="0.5" fill-rule="evenodd" clip-rule="evenodd" d="M37.7016 10.2395C22.175 10.2395 9.58814 22.6816 9.58814 38.0298C9.58814 53.378 22.175 65.8201 37.7016 65.8201C53.2283 65.8201 65.8151 53.378 65.8151 38.0298C65.8151 22.6816 53.2283 10.2395 37.7016 10.2395ZM9.17944 38.0298C9.17944 22.4585 21.9493 9.83545 37.7016 9.83545C53.454 9.83545 66.2238 22.4585 66.2238 38.0298C66.2238 53.6011 53.454 66.2241 37.7016 66.2241C21.9493 66.2241 9.17944 53.6011 9.17944 38.0298Z" fill="#DFC67B"/>
<path d="M63.2309 49.6723C51.4145 58.0121 36.8484 54.2672 29.743 45.5193C25.2551 39.9961 23.2987 33.6652 24.2072 26.5966C25.1157 19.5281 28.7096 13.9397 34.6178 9.54883C22.6655 10.6354 10.3907 20.5132 9.35117 35.901C8.42571 49.6071 18.282 62.4995 31.7625 65.2026C47.4761 68.3536 59.4659 58.6882 63.2309 49.6723Z" fill="url(#paint1_linear)"/>
<path d="M88.3171 17.9547H91.9355V33.6589H100.057V37.0775H88.3171V17.9547Z" fill="white"/>
<path d="M109.395 37.5048C108.27 37.5048 107.242 37.3268 106.313 36.9707C105.402 36.5968 104.624 36.0626 103.981 35.3682C103.338 34.6738 102.838 33.837 102.48 32.8577C102.123 31.8606 101.944 30.7299 101.944 29.4658V17.9547H105.562V29.6794C105.562 30.3204 105.643 30.908 105.804 31.4422C105.965 31.9763 106.206 32.4393 106.527 32.831C106.849 33.2227 107.251 33.5343 107.734 33.7657C108.216 33.9794 108.77 34.0862 109.395 34.0862C110.039 34.0862 110.601 33.9794 111.084 33.7657C111.566 33.5343 111.968 33.2227 112.29 32.831C112.612 32.4393 112.853 31.9763 113.014 31.4422C113.175 30.908 113.255 30.3204 113.255 29.6794V17.9547H116.873V29.4658C116.873 30.6587 116.695 31.7537 116.337 32.7508C115.998 33.7301 115.497 34.5759 114.836 35.2881C114.193 35.9825 113.407 36.5256 112.478 36.9173C111.566 37.309 110.539 37.5048 109.395 37.5048Z" fill="white"/>
<path d="M120.303 17.9547H124.511L132.23 30.7745H132.444L132.23 27.0888V17.9547H135.821V37.0775H132.015L123.867 23.5366H123.653L123.867 27.2223V37.0775H120.303V17.9547Z" fill="white"/>
<path d="M145.274 17.9547H149.401L156.611 37.0775H152.618L151.036 32.5105H143.639L142.057 37.0775H138.064L145.274 17.9547ZM149.857 29.1987L148.142 24.418L147.445 22.0944H147.23L146.533 24.418L144.818 29.1987H149.857Z" fill="white"/>
<path d="M158.858 17.9547H165.853C166.818 17.9547 167.694 18.106 168.48 18.4087C169.266 18.7114 169.936 19.1298 170.49 19.664C171.062 20.1981 171.5 20.8391 171.804 21.5869C172.107 22.317 172.259 23.1182 172.259 23.9907C172.259 24.6316 172.152 25.237 171.938 25.8068C171.723 26.3588 171.428 26.8662 171.053 27.3291C170.678 27.7743 170.24 28.1749 169.74 28.531C169.24 28.8693 168.712 29.1364 168.159 29.3322L168.132 29.5192L173.278 36.8639V37.0775H169.123L164.165 29.8931H162.476V37.0775H158.858V17.9547ZM165.827 26.5813C166.649 26.5813 167.319 26.332 167.837 25.8335C168.373 25.335 168.641 24.7029 168.641 23.9372C168.641 23.5989 168.578 23.2695 168.453 22.949C168.346 22.6286 168.176 22.3437 167.944 22.0944C167.712 21.8451 167.417 21.6493 167.06 21.5068C166.72 21.3466 166.327 21.2664 165.88 21.2664H162.476V26.5813H165.827Z" fill="white"/>
<path d="M189.958 26.5813H199.365C199.419 26.795 199.464 27.0532 199.499 27.3558C199.535 27.6585 199.553 27.9612 199.553 28.2639C199.553 29.4925 199.365 30.6498 198.99 31.7359C198.615 32.8221 198.025 33.7924 197.221 34.6471C196.364 35.5552 195.336 36.2585 194.139 36.757C192.942 37.2556 191.575 37.5048 190.038 37.5048C188.644 37.5048 187.331 37.2556 186.098 36.757C184.865 36.2585 183.793 35.5641 182.882 34.6738C181.97 33.7835 181.247 32.733 180.711 31.5223C180.175 30.2937 179.907 28.9583 179.907 27.5161C179.907 26.0739 180.175 24.7474 180.711 23.5366C181.247 22.3081 181.97 21.2486 182.882 20.3584C183.793 19.4681 184.865 18.7737 186.098 18.2752C187.331 17.7766 188.644 17.5273 190.038 17.5273C191.593 17.5273 192.977 17.7944 194.192 18.3286C195.425 18.8627 196.48 19.6017 197.355 20.5453L194.863 22.9758C194.237 22.317 193.54 21.8184 192.772 21.4801C192.004 21.124 191.083 20.946 190.011 20.946C189.136 20.946 188.305 21.1062 187.519 21.4267C186.732 21.7294 186.044 22.1656 185.455 22.7354C184.865 23.3052 184.392 23.9996 184.034 24.8186C183.695 25.6198 183.525 26.519 183.525 27.5161C183.525 28.5132 183.695 29.4213 184.034 30.2403C184.392 31.0415 184.865 31.727 185.455 32.2968C186.062 32.8666 186.759 33.3117 187.545 33.6322C188.332 33.9349 189.171 34.0862 190.065 34.0862C191.083 34.0862 191.941 33.9438 192.638 33.6589C193.353 33.3562 193.96 32.9734 194.461 32.5105C194.818 32.19 195.122 31.7894 195.372 31.3086C195.64 30.8101 195.845 30.2581 195.988 29.6527H189.958V26.5813Z" fill="white"/>
<path d="M202.543 17.9547H209.539C210.504 17.9547 211.379 18.106 212.166 18.4087C212.952 18.7114 213.622 19.1298 214.176 19.664C214.748 20.1981 215.185 20.8391 215.489 21.5869C215.793 22.317 215.945 23.1182 215.945 23.9907C215.945 24.6316 215.838 25.237 215.623 25.8068C215.409 26.3588 215.114 26.8662 214.739 27.3291C214.364 27.7743 213.926 28.1749 213.425 28.531C212.925 28.8693 212.398 29.1364 211.844 29.3322L211.817 29.5192L216.963 36.8639V37.0775H212.809L207.85 29.8931H206.162V37.0775H202.543V17.9547ZM209.512 26.5813C210.334 26.5813 211.004 26.332 211.522 25.8335C212.058 25.335 212.327 24.7029 212.327 23.9372C212.327 23.5989 212.264 23.2695 212.139 22.949C212.032 22.6286 211.862 22.3437 211.63 22.0944C211.397 21.8451 211.103 21.6493 210.745 21.5068C210.406 21.3466 210.013 21.2664 209.566 21.2664H206.162V26.5813H209.512Z" fill="white"/>
<path d="M219.164 17.9547H222.783V37.0775H219.164V17.9547Z" fill="white"/>
<path d="M226.65 17.9547H233.137C234.655 17.9547 236.022 18.1861 237.237 18.6491C238.453 19.112 239.489 19.7708 240.347 20.6255C241.204 21.4623 241.856 22.4683 242.303 23.6435C242.768 24.8186 243 26.1095 243 27.5161C243 28.9405 242.768 30.2403 242.303 31.4154C241.856 32.5906 241.204 33.5966 240.347 34.4334C239.489 35.2703 238.453 35.9202 237.237 36.3831C236.022 36.8461 234.655 37.0775 233.137 37.0775H226.65V17.9547ZM232.976 33.6589C234.03 33.6589 234.959 33.5165 235.763 33.2316C236.567 32.9289 237.237 32.5105 237.774 31.9763C238.31 31.4422 238.712 30.8012 238.98 30.0533C239.248 29.2877 239.382 28.442 239.382 27.5161C239.382 26.5902 239.248 25.7534 238.98 25.0056C238.712 24.2399 238.31 23.59 237.774 23.0559C237.237 22.5217 236.567 22.1122 235.763 21.8273C234.959 21.5246 234.03 21.3733 232.976 21.3733H230.269V33.6589H232.976Z" fill="white"/>
<path d="M119.741 59.3816C119.168 59.3816 118.733 59.2151 118.439 58.8822C118.145 58.5418 117.998 58.0572 117.998 57.4283V56.9843H119.117V57.5171C119.117 58.0202 119.322 58.2718 119.731 58.2718C119.932 58.2718 120.082 58.2126 120.183 58.0942C120.29 57.9684 120.344 57.7686 120.344 57.4949C120.344 57.1693 120.272 56.8844 120.129 56.6403C119.985 56.3887 119.72 56.089 119.333 55.7413C118.845 55.2973 118.504 54.8978 118.31 54.5426C118.116 54.1801 118.02 53.7731 118.02 53.3218C118.02 52.7077 118.17 52.2341 118.472 51.9012C118.773 51.5608 119.211 51.3906 119.785 51.3906C120.351 51.3906 120.778 51.5608 121.065 51.9012C121.359 52.2341 121.506 52.7151 121.506 53.344V53.6658H120.387V53.2663C120.387 52.9999 120.337 52.8075 120.237 52.6892C120.136 52.5634 119.989 52.5005 119.795 52.5005C119.401 52.5005 119.203 52.7484 119.203 53.2441C119.203 53.5253 119.275 53.7879 119.419 54.0321C119.569 54.2763 119.838 54.5722 120.226 54.92C120.721 55.3639 121.062 55.7672 121.248 56.1297C121.435 56.4923 121.528 56.9177 121.528 57.4061C121.528 58.0424 121.374 58.5307 121.065 58.8711C120.764 59.2114 120.323 59.3816 119.741 59.3816Z" fill="white"/>
<path d="M137.715 52.6115H136.477V51.5016H140.136V52.6115H138.898V59.2706H137.715V52.6115Z" fill="white"/>
<path d="M157.013 59.3816C156.439 59.3816 156.002 59.2151 155.7 58.8822C155.399 58.5418 155.248 58.0572 155.248 57.4283V51.5016H156.432V57.5171C156.432 57.7834 156.482 57.9758 156.583 58.0942C156.691 58.2126 156.841 58.2718 157.035 58.2718C157.229 58.2718 157.376 58.2126 157.476 58.0942C157.584 57.9758 157.638 57.7834 157.638 57.5171V51.5016H158.778V57.4283C158.778 58.0572 158.628 58.5418 158.326 58.8822C158.025 59.2151 157.587 59.3816 157.013 59.3816Z" fill="white"/>
<path d="M174.204 51.5016H176.012C176.6 51.5016 177.041 51.6644 177.335 51.9899C177.63 52.3155 177.777 52.7927 177.777 53.4217V57.3506C177.777 57.9795 177.63 58.4567 177.335 58.7823C177.041 59.1079 176.6 59.2706 176.012 59.2706H174.204V51.5016ZM175.99 58.1608C176.184 58.1608 176.331 58.1016 176.432 57.9832C176.539 57.8648 176.593 57.6724 176.593 57.4061V53.3662C176.593 53.0998 176.539 52.9074 176.432 52.789C176.331 52.6707 176.184 52.6115 175.99 52.6115H175.388V58.1608H175.99Z" fill="white"/>
<path d="M193.158 51.5016H194.342V59.2706H193.158V51.5016Z" fill="white"/>
<path d="M211.522 59.3816C210.941 59.3816 210.496 59.2114 210.188 58.8711C209.879 58.5307 209.725 58.0498 209.725 57.4283V53.344C209.725 52.7225 209.879 52.2415 210.188 51.9012C210.496 51.5608 210.941 51.3906 211.522 51.3906C212.103 51.3906 212.548 51.5608 212.857 51.9012C213.165 52.2415 213.319 52.7225 213.319 53.344V57.4283C213.319 58.0498 213.165 58.5307 212.857 58.8711C212.548 59.2114 212.103 59.3816 211.522 59.3816ZM211.522 58.2718C211.931 58.2718 212.135 58.0165 212.135 57.506V53.2663C212.135 52.7558 211.931 52.5005 211.522 52.5005C211.113 52.5005 210.909 52.7558 210.909 53.2663V57.506C210.909 58.0165 211.113 58.2718 211.522 58.2718Z" fill="white"/>
<defs>
<linearGradient id="paint0_linear" x1="-6.3559" y1="-7.30958" x2="79.1343" y2="78.8163" gradientUnits="userSpaceOnUse">
<stop stop-color="#29539B"/>
<stop offset="1" stop-color="#051431"/>
</linearGradient>
<linearGradient id="paint1_linear" x1="36.2609" y1="9.54883" x2="36.2609" y2="65.8114" gradientUnits="userSpaceOnUse">
<stop stop-color="#FFFFCC"/>
<stop offset="1" stop-color="#E2C96E"/>
</linearGradient>
</defs>
</svg>
