<svg width="160" height="51" viewBox="0 0 160 51" fill="none" xmlns="http://www.w3.org/2000/svg">
<path d="M38.5446 1.35938H10.7359C4.80664 1.35938 0 6.16602 0 12.0953V39.9039C0 45.8332 4.80664 50.6399 10.7359 50.6399H38.5446C44.4739 50.6399 49.2805 45.8332 49.2805 39.9039V12.0953C49.2805 6.16602 44.4739 1.35938 38.5446 1.35938Z" fill="#111724"/>
<path d="M38.5448 0H10.7362C4.80688 0 0.000244141 4.80664 0.000244141 10.7359V38.5446C0.000244141 44.4739 4.80688 49.2805 10.7362 49.2805H38.5448C44.4741 49.2805 49.2807 44.4739 49.2807 38.5446V10.7359C49.2807 4.80664 44.4741 0 38.5448 0Z" fill="url(#paint0_linear)"/>
<path opacity="0.5" fill-rule="evenodd" clip-rule="evenodd" d="M2.88892 3.22852H46.0518V46.3914H2.88892V3.22852ZM3.15778 3.49738V46.1226H45.783V3.49738H3.15778Z" fill="#DFC67B"/>
<path opacity="0.5" fill-rule="evenodd" clip-rule="evenodd" d="M33.3066 49.2805V0H33.6465V49.2805H33.3066Z" fill="#DFC67B"/>
<path opacity="0.5" fill-rule="evenodd" clip-rule="evenodd" d="M24.4702 49.2805V0H24.8101V49.2805H24.4702Z" fill="#DFC67B"/>
<path opacity="0.5" fill-rule="evenodd" clip-rule="evenodd" d="M15.804 49.2805V0H15.9739V49.2805H15.804Z" fill="#DFC67B"/>
<path opacity="0.5" fill-rule="evenodd" clip-rule="evenodd" d="M49.2805 15.6338H0V15.4639H49.2805V15.6338Z" fill="#DFC67B"/>
<path opacity="0.5" fill-rule="evenodd" clip-rule="evenodd" d="M49.2805 24.8101H0V24.4702H49.2805V24.8101Z" fill="#DFC67B"/>
<path opacity="0.5" fill-rule="evenodd" clip-rule="evenodd" d="M49.2805 33.8164H0V33.6465H49.2805V33.8164Z" fill="#DFC67B"/>
<path opacity="0.5" fill-rule="evenodd" clip-rule="evenodd" d="M46.0315 46.2215L2.88892 3.0789L3.07915 2.88867L46.2218 46.0313L46.0315 46.2215Z" fill="#DFC67B"/>
<path opacity="0.5" fill-rule="evenodd" clip-rule="evenodd" d="M2.88892 46.2017L45.8614 3.39844L46.0518 3.58815L3.07938 46.3914L2.88892 46.2017Z" fill="#DFC67B"/>
<path opacity="0.5" fill-rule="evenodd" clip-rule="evenodd" d="M24.3003 6.04641C14.1246 6.04641 5.87552 14.3329 5.87552 24.5549C5.87552 34.7769 14.1246 43.0634 24.3003 43.0634C34.476 43.0634 42.725 34.7769 42.725 24.5549C42.725 14.3329 34.476 6.04641 24.3003 6.04641ZM5.60767 24.5549C5.60767 14.1843 13.9766 5.77734 24.3003 5.77734C34.6239 5.77734 42.9929 14.1843 42.9929 24.5549C42.9929 34.9255 34.6239 43.3325 24.3003 43.3325C13.9766 43.3325 5.60767 34.9255 5.60767 24.5549Z" fill="#DFC67B"/>
<path opacity="0.5" fill-rule="evenodd" clip-rule="evenodd" d="M32.1634 5.40028C23.8202 5.40028 17.0568 12.1637 17.0568 20.5069C17.0568 28.8501 23.8202 35.6135 32.1634 35.6135C40.5066 35.6135 47.27 28.8501 47.27 20.5069C47.27 12.1637 40.5066 5.40028 32.1634 5.40028ZM16.8372 20.5069C16.8372 12.0425 23.6989 5.18066 32.1634 5.18066C40.6278 5.18066 47.4896 12.0425 47.4896 20.5069C47.4896 28.9713 40.6278 35.8331 32.1634 35.8331C23.6989 35.8331 16.8372 28.9713 16.8372 20.5069Z" fill="#DFC67B"/>
<path opacity="0.5" fill-rule="evenodd" clip-rule="evenodd" d="M24.8242 6.74208C14.6009 6.74208 6.31329 14.9345 6.31329 25.0402C6.31329 35.146 14.6009 43.3384 24.8242 43.3384C35.0475 43.3384 43.3352 35.146 43.3352 25.0402C43.3352 14.9345 35.0475 6.74208 24.8242 6.74208ZM6.04419 25.0402C6.04419 14.7875 14.4523 6.47607 24.8242 6.47607C35.1962 6.47607 43.6043 14.7875 43.6043 25.0402C43.6043 35.293 35.1962 43.6044 24.8242 43.6044C14.4523 43.6044 6.04419 35.293 6.04419 25.0402Z" fill="#DFC67B"/>
<path d="M41.6334 32.7064C33.853 38.1976 24.2622 35.7318 19.5838 29.9719C16.6288 26.3352 15.3406 22.1667 15.9388 17.5125C16.5369 12.8583 18.9033 9.17868 22.7935 6.2876C14.9237 7.00301 6.84147 13.507 6.15704 23.6389C5.54768 32.6634 12.0374 41.1523 20.9135 42.9321C31.2599 45.0068 39.1544 38.6427 41.6334 32.7064Z" fill="url(#paint1_linear)"/>
<path d="M58.1514 11.8219H60.5338V22.1621H65.8812V24.4131H58.1514V11.8219Z" fill="#1B2F52"/>
<path d="M72.03 24.6944C71.2888 24.6944 70.6123 24.5772 70.0005 24.3427C69.4004 24.0965 68.8886 23.7448 68.4651 23.2876C68.0415 22.8304 67.7121 22.2794 67.4768 21.6346C67.2415 20.978 67.1239 20.2336 67.1239 19.4012V11.8219H69.5063V19.5419C69.5063 19.964 69.5593 20.3508 69.6652 20.7025C69.771 21.0543 69.9299 21.3591 70.1417 21.617C70.3534 21.8749 70.6182 22.0801 70.9358 22.2325C71.2535 22.3732 71.6182 22.4435 72.03 22.4435C72.4535 22.4435 72.8242 22.3732 73.1418 22.2325C73.4595 22.0801 73.7242 21.8749 73.936 21.617C74.1477 21.3591 74.3066 21.0543 74.4125 20.7025C74.5184 20.3508 74.5713 19.964 74.5713 19.5419V11.8219H76.9538V19.4012C76.9538 20.1867 76.8361 20.9077 76.6008 21.5642C76.3773 22.209 76.0478 22.7659 75.6125 23.2348C75.189 23.6921 74.6713 24.0496 74.0595 24.3076C73.4595 24.5655 72.783 24.6944 72.03 24.6944Z" fill="#1B2F52"/>
<path d="M79.2118 11.8219H81.9825L87.0651 20.2629H87.2063L87.0651 17.8361V11.8219H89.4299V24.4131H86.9239L81.5589 15.4973H81.4178L81.5589 17.924V24.4131H79.2118V11.8219Z" fill="#1B2F52"/>
<path d="M95.6536 11.8219H98.3714L103.119 24.4131H100.489L99.4479 21.406H94.5771L93.5359 24.4131H90.9063L95.6536 11.8219ZM98.6714 19.2254L97.5419 16.0776L97.0831 14.5476H96.9419L96.4831 16.0776L95.3536 19.2254H98.6714Z" fill="#1B2F52"/>
<path d="M104.598 11.8219H109.204C109.839 11.8219 110.416 11.9215 110.934 12.1208C111.451 12.3201 111.892 12.5957 112.257 12.9474C112.634 13.2991 112.922 13.7211 113.122 14.2135C113.322 14.6942 113.422 15.2217 113.422 15.7962C113.422 16.2183 113.351 16.6169 113.21 16.992C113.069 17.3554 112.875 17.6896 112.628 17.9944C112.381 18.2875 112.092 18.5513 111.763 18.7857C111.434 19.0085 111.087 19.1843 110.722 19.3133L110.704 19.4364L114.093 24.2724V24.4131H111.357L108.092 19.6826H106.98V24.4131H104.598V11.8219ZM109.186 17.502C109.728 17.502 110.169 17.3379 110.51 17.0096C110.863 16.6813 111.039 16.2651 111.039 15.761C111.039 15.5383 110.998 15.3214 110.916 15.1104C110.845 14.8993 110.734 14.7118 110.581 14.5476C110.428 14.3835 110.234 14.2545 109.998 14.1608C109.775 14.0552 109.516 14.0025 109.222 14.0025H106.98V17.502H109.186Z" fill="#1B2F52"/>
<path d="M125.075 17.502H131.27C131.305 17.6427 131.334 17.8127 131.358 18.012C131.381 18.2113 131.393 18.4106 131.393 18.6099C131.393 19.4188 131.27 20.1808 131.023 20.896C130.775 21.6111 130.387 22.2501 129.858 22.8128C129.293 23.4107 128.617 23.8738 127.828 24.202C127.04 24.5303 126.14 24.6944 125.128 24.6944C124.21 24.6944 123.346 24.5303 122.534 24.202C121.722 23.8738 121.016 23.4166 120.416 22.8304C119.816 22.2442 119.34 21.5525 118.987 20.7553C118.634 19.9464 118.457 19.0671 118.457 18.1175C118.457 17.1679 118.634 16.2945 118.987 15.4973C119.34 14.6883 119.816 13.9908 120.416 13.4046C121.016 12.8184 121.722 12.3612 122.534 12.0329C123.346 11.7047 124.21 11.5405 125.128 11.5405C126.152 11.5405 127.063 11.7164 127.864 12.0681C128.675 12.4198 129.369 12.9063 129.946 13.5277L128.305 15.128C127.893 14.6942 127.434 14.3659 126.928 14.1432C126.422 13.9087 125.816 13.7915 125.11 13.7915C124.534 13.7915 123.987 13.897 123.469 14.108C122.952 14.3073 122.499 14.5945 122.11 14.9697C121.722 15.3448 121.41 15.8021 121.175 16.3414C120.951 16.8689 120.84 17.461 120.84 18.1175C120.84 18.774 120.951 19.3719 121.175 19.9112C121.41 20.4388 121.722 20.8901 122.11 21.2653C122.51 21.6404 122.969 21.9335 123.487 22.1446C124.005 22.3439 124.557 22.4435 125.146 22.4435C125.816 22.4435 126.381 22.3497 126.84 22.1621C127.311 21.9628 127.711 21.7108 128.04 21.406C128.275 21.1949 128.475 20.9312 128.64 20.6146C128.817 20.2864 128.952 19.9229 129.046 19.5243H125.075V17.502Z" fill="#1B2F52"/>
<path d="M133.362 11.8219H137.968C138.604 11.8219 139.18 11.9215 139.698 12.1208C140.215 12.3201 140.657 12.5957 141.021 12.9474C141.398 13.2991 141.686 13.7211 141.886 14.2135C142.086 14.6942 142.186 15.2217 142.186 15.7962C142.186 16.2183 142.116 16.6169 141.974 16.992C141.833 17.3554 141.639 17.6896 141.392 17.9944C141.145 18.2875 140.857 18.5513 140.527 18.7857C140.198 19.0085 139.851 19.1843 139.486 19.3133L139.468 19.4364L142.857 24.2724V24.4131H140.121L136.856 19.6826H135.745V24.4131H133.362V11.8219ZM137.951 17.502C138.492 17.502 138.933 17.3379 139.274 17.0096C139.627 16.6813 139.804 16.2651 139.804 15.761C139.804 15.5383 139.762 15.3214 139.68 15.1104C139.609 14.8993 139.498 14.7118 139.345 14.5476C139.192 14.3835 138.998 14.2545 138.762 14.1608C138.539 14.0552 138.28 14.0025 137.986 14.0025H135.745V17.502H137.951Z" fill="#1B2F52"/>
<path d="M144.306 11.8219H146.688V24.4131H144.306V11.8219Z" fill="#1B2F52"/>
<path d="M149.235 11.8219H153.506C154.506 11.8219 155.406 11.9743 156.206 12.2791C157.006 12.5839 157.688 13.0177 158.253 13.5804C158.818 14.1314 159.247 14.7938 159.541 15.5676C159.847 16.3414 160 17.1913 160 18.1175C160 19.0554 159.847 19.9112 159.541 20.685C159.247 21.4587 158.818 22.1211 158.253 22.6721C157.688 23.2231 157.006 23.651 156.206 23.9558C155.406 24.2607 154.506 24.4131 153.506 24.4131H149.235V11.8219ZM153.4 22.1621C154.094 22.1621 154.706 22.0683 155.235 21.8808C155.765 21.6815 156.206 21.406 156.559 21.0543C156.912 20.7025 157.177 20.2805 157.353 19.7881C157.53 19.284 157.618 18.7271 157.618 18.1175C157.618 17.5079 157.53 16.9568 157.353 16.4645C157.177 15.9603 156.912 15.5324 156.559 15.1807C156.206 14.829 155.765 14.5594 155.235 14.3718C154.706 14.1725 154.094 14.0728 153.4 14.0728H151.617V22.1621H153.4Z" fill="#1B2F52"/>
<path d="M78.8423 39.099C78.4643 39.099 78.1785 38.9893 77.9849 38.7701C77.7912 38.546 77.6943 38.2269 77.6943 37.8128V37.5205H78.4313V37.8713C78.4313 38.2026 78.5659 38.3682 78.8352 38.3682C78.9675 38.3682 79.0667 38.3292 79.1328 38.2513C79.2037 38.1684 79.2391 38.0369 79.2391 37.8567C79.2391 37.6423 79.1918 37.4547 79.0974 37.294C79.0029 37.1283 78.8281 36.931 78.573 36.702C78.2518 36.4097 78.0274 36.1466 77.8998 35.9128C77.7723 35.6741 77.7085 35.4061 77.7085 35.1089C77.7085 34.7046 77.8077 34.3928 78.0061 34.1736C78.2045 33.9495 78.4927 33.8374 78.8706 33.8374C79.2438 33.8374 79.5249 33.9495 79.7138 34.1736C79.9075 34.3928 80.0044 34.7095 80.0044 35.1236V35.3355H79.2674V35.0724C79.2674 34.897 79.2344 34.7704 79.1682 34.6924C79.1021 34.6096 79.0052 34.5682 78.8777 34.5682C78.6179 34.5682 78.488 34.7314 78.488 35.0578C78.488 35.2429 78.5352 35.4159 78.6297 35.5766C78.7289 35.7374 78.906 35.9323 79.1611 36.1613C79.4871 36.4536 79.7115 36.7191 79.8343 36.9578C79.9571 37.1965 80.0185 37.4767 80.0185 37.7982C80.0185 38.2172 79.917 38.5387 79.7138 38.7628C79.5154 38.9869 79.2249 39.099 78.8423 39.099Z" fill="#1B2F52"/>
<path d="M90.6764 34.6413H89.8615V33.9105H92.2708V34.6413H91.4559V39.0259H90.6764V34.6413Z" fill="#1B2F52"/>
<path d="M103.383 39.099C103.006 39.099 102.717 38.9893 102.519 38.7701C102.321 38.546 102.221 38.2269 102.221 37.8128V33.9105H103.001V37.8713C103.001 38.0467 103.034 38.1733 103.1 38.2513C103.171 38.3292 103.27 38.3682 103.398 38.3682C103.525 38.3682 103.622 38.3292 103.688 38.2513C103.759 38.1733 103.794 38.0467 103.794 37.8713V33.9105H104.546V37.8128C104.546 38.2269 104.446 38.546 104.248 38.7701C104.05 38.9893 103.761 39.099 103.383 39.099Z" fill="#1B2F52"/>
<path d="M114.702 33.9105H115.893C116.28 33.9105 116.571 34.0177 116.764 34.232C116.958 34.4464 117.055 34.7606 117.055 35.1747V37.7617C117.055 38.1758 116.958 38.49 116.764 38.7043C116.571 38.9187 116.28 39.0259 115.893 39.0259H114.702V33.9105ZM115.879 38.2951C116.006 38.2951 116.103 38.2561 116.169 38.1782C116.24 38.1002 116.275 37.9736 116.275 37.7982V35.1382C116.275 34.9628 116.24 34.8361 116.169 34.7582C116.103 34.6802 116.006 34.6413 115.879 34.6413H115.482V38.2951H115.879Z" fill="#1B2F52"/>
<path d="M127.182 33.9105H127.962V39.0259H127.182V33.9105Z" fill="#1B2F52"/>
<path d="M139.274 39.099C138.891 39.099 138.598 38.9869 138.395 38.7628C138.192 38.5387 138.091 38.222 138.091 37.8128V35.1236C138.091 34.7143 138.192 34.3977 138.395 34.1736C138.598 33.9495 138.891 33.8374 139.274 33.8374C139.657 33.8374 139.949 33.9495 140.153 34.1736C140.356 34.3977 140.457 34.7143 140.457 35.1236V37.8128C140.457 38.222 140.356 38.5387 140.153 38.7628C139.949 38.9869 139.657 39.099 139.274 39.099ZM139.274 38.3682C139.543 38.3682 139.678 38.2001 139.678 37.864V35.0724C139.678 34.7363 139.543 34.5682 139.274 34.5682C139.005 34.5682 138.87 34.7363 138.87 35.0724V37.864C138.87 38.2001 139.005 38.3682 139.274 38.3682Z" fill="#1B2F52"/>
<defs>
<linearGradient id="paint0_linear" x1="-4.18487" y1="-4.81289" x2="52.105" y2="51.8955" gradientUnits="userSpaceOnUse">
<stop stop-color="#29539B"/>
<stop offset="1" stop-color="#051431"/>
</linearGradient>
<linearGradient id="paint1_linear" x1="23.8754" y1="6.2876" x2="23.8754" y2="43.3329" gradientUnits="userSpaceOnUse">
<stop stop-color="#FFFFCC"/>
<stop offset="1" stop-color="#E2C96E"/>
</linearGradient>
</defs>
</svg>
